<svg width="256" height="256" viewBox="0 0 256 256" fill="none" xmlns="http://www.w3.org/2000/svg">
  <rect width="256" height="256" rx="56" fill="#0F172A"/>
  <path d="M60 78C60 65.8497 69.8497 56 82 56H174C186.15 56 196 65.8497 196 78V91C196 100.454 190.062 108.887 181.174 112.046L150 123.128V160C150 167.732 145.33 174.698 138.176 177.67L123.176 183.904C115.939 186.912 108 181.594 108 173.756V123.128L74.8261 112.046C65.9382 108.887 60 100.454 60 91V78Z" fill="#F8FAFC"/>
  <path d="M82 72H174C177.314 72 180 74.6863 180 78V88.1607C180 90.7418 178.357 93.0358 175.915 93.8614L128 110L80.0849 93.8614C77.6427 93.0358 76 90.7418 76 88.1607V78C76 74.6863 78.6863 72 82 72Z" fill="#22C55E"/>
  <circle cx="128" cy="196" r="10" fill="#22C55E"/>
</svg>
